# xmcd
#
# Track frame offsets: 
#        150
#        16143
#        30157
#        53963
#        68314
#        86023
#        122422
#        139213
#        159784
#        175763
#        189085
#
# Disc length: 2888 seconds
#
# Revision: 0
# Processed by: cddbd v1.5.1PL0 Copyright (c) Steve Scherf et al.
# Submitted via: ExactAudioCopy v0.95a5
#
DISCID=730b460b
DTITLE=Mason Stevens - Luna Waves
DYEAR=2001
DGENRE=Guitar Ambient
TTITLE0=Blue Cat Swamp
TTITLE1=Primal Awakening
TTITLE2=Mist Before Dawn
TTITLE3=Morning Calm
TTITLE4=Solo Wings
TTITLE5=Shadow in the Rain
TTITLE6=Forbidden Trail
TTITLE7=Cavern's End
TTITLE8=Reflections
TTITLE9=Fire Dance
TTITLE10=Luna Waves
EXTD=
EXTT0=
EXTT1=
EXTT2=
EXTT3=
EXTT4=
EXTT5=
EXTT6=
EXTT7=
EXTT8=
EXTT9=
EXTT10=
PLAYORDER=
